<svg xmlns="http://www.w3.org/2000/svg" width="260" height="80" viewBox="0 0 260 80">
<defs><linearGradient id="bg" x1="0" y1="0" x2="1" y2="1"><stop stop-color="#173a66"/><stop offset="1" stop-color="#0d2140"/></linearGradient><filter id="shadow" x="-20%" y="-30%" width="140%" height="170%"><feDropShadow dx="0" dy="5" stdDeviation="5" flood-color="#000" flood-opacity=".24"/></filter></defs>
<rect x="2" y="2" width="256" height="76" rx="16" fill="url(#bg)" stroke="#fff" stroke-opacity=".42" stroke-width="2" filter="url(#shadow)"/>
<circle cx="42" cy="40" r="23" fill="#2f9cf4"/><circle cx="42" cy="40" r="18" fill="#fff" fill-opacity=".10"/>
<path d="M34.5 29.5c1.2-.8 2.7-.6 3.6.5l3.2 4c.8 1 .7 2.3-.2 3.2l-1.8 1.8c1.3 2.7 3.5 4.9 6.2 6.2l1.8-1.8c.9-.9 2.2-1 3.2-.2l4 3.2c1.1.9 1.3 2.4.5 3.6l-1.5 2.1c-.8 1.2-2.2 1.9-3.7 1.8-5.2-.5-10.2-3.1-14-6.9-3.8-3.8-6.4-8.8-6.9-14-.1-1.5.6-2.9 1.8-3.7z" fill="#fff"/>
<text x="78" y="47" fill="#fff" font-family="Arial,Helvetica,sans-serif" font-size="22" font-weight="700">Call Us</text>
</svg>